<svg xmlns="http://www.w3.org/2000/svg" 
  xmlns:xlink="http://www.w3.org/1999/xlink">
  <symbol id="home-logo" viewBox="0 0 489.6 489.6">
    <path style="fill:#F4AD31;" d="M244.8,207.2c25.6-20.8,58.4-32.8,94.4-32.8c19.2,0,37.6,4,55.2,10.4c0.8-6.4,1.6-13.6,1.6-20
     c0-83.2-67.2-150.4-150.4-150.4S95.2,81.6,95.2,164.8c0,7.2,0.8,13.6,1.6,20c16.8-6.4,35.2-10.4,55.2-10.4
     C186.4,174.4,219.2,187.2,244.8,207.2z" />
    <path style="fill:#E2821A;" d="M150.4,174.4c36,0,68,12.8,94.4,32.8c25.6-20.8,58.4-32.8,94.4-32.8c19.2,0,37.6,4,55.2,10.4
     c0.8-6.4,1.6-13.6,1.6-20c0-83.2-67.2-150.4-150.4-150.4" />
    <path style="fill:#D32A0F;" d="M188,324.8c0-7.2,0.8-13.6,1.6-20c-49.6-19.2-86.4-64.8-94.4-120C40,207.2,0,260.8,0,324.8
     C0,408,67.2,475.2,150.4,475.2c36,0,68-12.8,94.4-32.8C210.4,414.4,188,372,188,324.8z" />
    <path style="fill:#B71100;" d="M150.4,475.2c36,0,68-12.8,94.4-32.8c-34.4-27.2-56.8-69.6-56.8-117.6c0-7.2,0.8-13.6,1.6-20" />
    <path style="fill:#0878A0;" d="M393.6,184.8c-7.2,55.2-44,100-94.4,120c0.8,6.4,1.6,13.6,1.6,20c0,47.2-22.4,89.6-56.8,117.6
     c25.6,20.8,58.4,32.8,94.4,32.8c83.2,0,150.4-67.2,150.4-150.4C489.6,260.8,449.6,207.2,393.6,184.8z" />
    <path style="fill:#0C6C8E;" d="M244.8,442.4c25.6,20.8,58.4,32.8,94.4,32.8c83.2,0,150.4-67.2,150.4-150.4" />
    <path style="fill:#3D3736;" d="M244.8,207.2c-29.6,23.2-49.6,57.6-55.2,96.8c16.8,6.4,35.2,10.4,55.2,10.4c19.2,0,37.6-4,55.2-10.4
     C294.4,265.6,274.4,231.2,244.8,207.2z" />
    <path d="M244.8,315.2c19.2,0,37.6-4,55.2-10.4c-5.6-39.2-25.6-73.6-55.2-96.8" />
    <path style="fill:#0CAA7D;" d="M300,304.8c49.6-19.2,86.4-64.8,94.4-120c-16.8-6.4-35.2-10.4-55.2-10.4c-35.2,0-68,12.8-94.4,32.8
     C274.4,231.2,294.4,265.6,300,304.8z" />
    <path style="fill:#720D20;" d="M244.8,207.2c-25.6-20.8-58.4-32.8-94.4-32.8c-19.2,0-37.6,4-55.2,10.4c7.2,55.2,44,100,94.4,120
     C195.2,265.6,215.2,231.2,244.8,207.2z" />
    <path style="fill:#783089;" d="M301.6,324.8c0-7.2-0.8-13.6-1.6-20c-16.8,6.4-35.2,10.4-55.2,10.4c-19.2,0-37.6-4-55.2-10.4
     c-0.8,6.4-1.6,13.6-1.6,20c0,47.2,22.4,89.6,56.8,117.6C279.2,414.4,301.6,372,301.6,324.8z" />
  </symbol>
  <symbol id="linkedin" viewBox="0 0 46.404 46.404">
    <path d="M3.518,14.342c1.4,0.9,4.1,0.9,5.9,0.8c1.7-0.1,4.5-2.3,4.6-6.1c0.2-3.8-2.5-5.8-2.5-5.8
	c-3.2-2.8-7.7-1.2-8.6-0.6c-0.9,0.6-3.5,2.9-2.8,6C0.818,11.842,1.818,13.242,3.518,14.342z M2.218,4.542c0.7-1,2.2-2,5-1.6
	c2.9,0.4,3.7,1.7,4.4,2.9c0.8,1.2,0.7,2.2,0.7,2.2s-1.8-3.2-2.1-3.1c-0.3,0.1-0.7,0.6-0.5,0.9s2.3,3.1,2.2,3.3s-0.2,0.8-0.3,0.6
	s-1.8-3.1-2-3.1c-0.2,0.1-0.5,0.4-0.4,0.8c0.2,0.4,2,2.9,1.9,3s-0.4,0.6-0.5,0.4s-1.5-2.9-1.8-2.8s-0.5,0.4-0.3,0.8s1.7,2.4,1.6,2.5
	s-0.4,0.4-0.5,0.3s-1.6-2.4-1.8-2.4c-0.2,0-0.7,0.5-0.4,0.8c0.3,0.3,1.5,1.9,1.4,2c-0.2,0.1-1.1,0.3-1.3,0.2s-0.9-1.6-1.1-1.6
	c-0.2,0-0.7,0.4-0.6,0.7s1,1.1,0.7,1.2s-2.9-0.3-4-1.1C1.418,10.642,0.218,7.342,2.218,4.542z M4.018,10.342
	c0.2-0.2,0.2-0.3,0.2-0.5s-0.7-0.7-0.8-1.1s0-1.6,0.6-2.2s0.7-1,0.3-1.2s-1.5,0.4-1.7,1.8c-0.2,1.3,0,2.5,0.4,3
	C3.218,10.542,3.718,10.542,4.018,10.342z M6.418,19.642c-0.5-0.2-3.2-0.2-3.6-0.1s-0.4,3.8-0.4,4.2c0.1,0.4,0,1,0.3,1.1
	c0,0,0.6,0.1,0.7,0c0.2-0.1,0.3-3.8,0.3-4c0.1-0.3,2.8-0.1,2.9-0.2C6.918,20.542,7.018,19.842,6.418,19.642z M13.018,17.442
	c-1-0.4-6.2-0.5-8-0.5s-3.9-0.1-4.1,0.3c-0.2,0.3-0.1,7.6-0.2,12.4s-0.4,12-0.3,12.3c0.2,0.3,3.1,2.3,3.3,2.5
	c0.2,0.2,0.8,0.3,2.3,0.2s6.6,0.2,7.2,0.1s1.3-0.4,1.5-0.8s0.3-2.6,0.4-7.6s0.8-11.6,0.7-14.2S14.018,17.742,13.018,17.442z
	 M13.018,23.642c-0.2-0.1-1.6-2.4-1.8-2.1c-0.3,0.3-0.3,0.5,0,1s1.7,2.6,1.8,2.9c0,0.3,0.1,1.5,0,1.5s-1.8-2.7-2-2.6
	s-0.4,0.6-0.4,0.7s2.2,3,2.3,3.5s0,1.2-0.1,1.1s-1.7-3.3-2-3.2c-0.3,0.2-0.5,0.7-0.3,1.1s2.2,3.1,2.2,3.3s0,1.4-0.1,1.3
	s-1.8-3.2-2-3.2c-0.3,0-0.5,0.7-0.4,1c0.1,0.4,2.5,3.5,2.4,3.8s0,1.7-0.2,1.6c-0.1-0.1-2.1-3.7-2.3-3.7c-0.2-0.1-0.5,0.6-0.4,0.9
	s2.6,4.4,2.6,4.7c0,0.4,0,2.3-0.2,2.2c-0.2-0.1-2.4-4.5-2.8-4.6s-0.4,0.8-0.4,1c0.1,0.2,3,4.7,3,4.9s0,0.5-0.3,0.6s-0.4,0.1-0.4,0
	s-2.2-3.9-2.6-4.1s-0.6,0.4-0.6,0.5s2.7,3.6,2.4,3.8c-0.3,0.2-1,0.3-1.1,0.1c-0.2-0.2-2.4-4-2.6-4c-0.3,0-0.8,0.7-0.6,0.8
	c0.2,0.2,2.3,3.2,2.1,3.2c-0.2,0-0.9,0.2-1.1,0.1c-0.2-0.2-1.9-3-2.1-3c-0.3,0-0.5,0.4-0.5,0.4s1.7,2.4,1.5,2.4s-0.9,0.1-1,0
	s-1.2-2.2-1.4-2.2c-0.2-0.1-0.6,0.4-0.6,0.5s1.3,1.7,1,1.7s-1.8-0.1-1.9-0.1c-0.1-0.1-0.6-0.6-0.7-1.1s0.2-22.2,0.4-22.6
	c0.1-0.1,4.5,0.1,6.8,0.2s3.8-0.1,4.1,0.3c0.3,0.4,0.4,2.4,0.3,2.3s-1-1.9-1.3-1.8s-0.5,0.7-0.4,1c0.2,0.3,1.6,2.4,1.7,2.7
	C13.218,23.042,13.218,23.642,13.018,23.642z M46.318,25.942c-0.2-3.2-2-5.6-4.4-7.1c-2.4-1.6-6.6-2-9.4-1.4
	c-2.8,0.6-5.8,3.2-5.9,3.1c-0.1,0,0-2.2-0.1-2.7s-1-0.5-3.4-0.5s-5.6,0-5.7,0.2c-0.1,0.6,0.1,11.6,0.1,15.6s-0.2,8.3,0,8.9
	c0.2,0.5,1.8,2.4,2.4,2.4s6.5-0.1,7.4-0.2s1-1.1,1-2.3c0-1.3,0-11,0.4-14c0.4-3.1,2.9-4.2,4.8-3.7c2,0.5,2.3,2.7,2.7,5.4
	s-0.4,10.3-0.4,11.1s0.1,3.3,0.6,3.4c0.5,0.2,7.3,0,8.3,0c1-0.1,1.4-0.2,1.5-0.9S46.518,29.142,46.318,25.942z M42.618,24.142
	c0.1,0.1,2.4,3.8,2.4,4.1s0,1-0.1,1c-0.1-0.1-1.6-2.9-1.9-2.9c-0.3,0-0.7,0.6-0.5,0.8c0.1,0.2,2.3,3.5,2.3,3.7c0,0.3,0.1,1.8,0,1.6
	c-0.1-0.1-2-3.5-2.2-3.5s-0.4,0.6-0.4,0.8c0,0.3,2.4,4,2.4,4.1s0,2.4-0.2,2.4s-0.9-1.2-1.5-2.5s-0.7-1.7-1-1.6s-0.2,1.1-0.1,1.3
	c0.1,0.3,2.4,4.1,2.4,4.3c0,0.2,0.1,1.9-0.1,1.8s-2.3-4.6-2.5-4.6c-0.3,0-0.6,0.7-0.5,0.8c0.1,0.1,2.6,4.3,2.6,4.9
	c0.1,0.6,0,0.9-0.2,0.9s-0.3-0.1-0.4-0.3c-0.1-0.2-2.4-4-2.5-4.1c-0.1,0-0.5,0.7-0.3,0.9c0.1,0.2,2.2,3.3,2.1,3.3c-0.1,0-1,0-1.1,0
	c-0.1-0.1-1.8-2.7-2-2.7c-0.1,0-0.6,0.6-0.5,0.7s1.5,1.9,1.3,2s-0.8,0.1-0.9,0s-1.1-1.9-1.4-1.9c-0.3,0-0.5,0.5-0.4,0.6
	s1,1.4,0.8,1.5c-0.3,0.1-1.1,0.1-1.1,0s0.4-3.3,0.5-6.1c0-2.8-0.2-5.7-0.5-7.6s-0.5-3.7-1.8-4.4c-1.3-0.7-3.6-1.1-5.4,0
	c-1.8,1.1-2.4,2.3-2.7,2.7c-0.3,0.4-0.3,0.8-0.3,0.8s-0.9-1.6-1.3-1.2c-0.4,0.5-0.4,0.7-0.3,0.9c0.1,0.1,1.1,1,1.2,1.3
	c0,0.4,0.1,2.1,0,2.1s-1.3-2.3-1.5-2.2c-0.3,0.1-0.3,1-0.3,1.1s1.5,2.2,1.5,2.5s0,1.5-0.1,1.5c-0.1-0.1-1.7-2.9-1.8-2.8
	c-0.2,0.1-0.5,0.6-0.4,0.8c0,0.2,2.4,3.7,2.4,3.8c0,0.2,0,2.1-0.2,2.1s-2-3.8-2.2-3.8c-0.1,0-0.6,0.7-0.5,0.9
	c0.1,0.2,2.6,4.1,2.7,4.4c0.1,0.3,0.1,2.3,0,2.3s-2.7-5.3-2.8-5.3c-0.2,0-0.6,0.7-0.6,0.8c0,0.1,2.8,4.8,2.8,5.1
	c0,0.2-0.1,0.3-0.1,0.3s-0.2,0.1-0.3,0s-2.2-3.6-2.4-3.7c-0.2-0.1-0.7,0.5-0.6,0.7s2.3,2.9,2.2,3.1c-0.1,0.1-1.1,0.1-1.2,0
	c-0.1-0.1-1.7-2.9-1.9-2.9c-0.2,0-0.6,0.7-0.6,0.8c0,0.1,1.5,2.1,1.5,2.2s-0.9,0.1-0.9,0c-0.1-0.1-1.4-2.2-1.7-2.2
	c-0.3,0-0.5,0.7-0.4,0.8c0.1,0.1,1.2,1.6,1,1.6s-1.7,0.1-1.7-0.3s0.3-7.6,0.3-10s-0.3-12.6-0.1-13.2c0-0.1,4.7,0,5.5,0
	s1.3,0,1.4,0.1c0.1,0.1,0,3.9,0.2,4.1c0.3,0.1,1-0.6,1.2-0.8c0.2-0.2,1.3-1.1,3.7-2.3c2.4-1.1,5.7-1.4,7.3-1
	c1.7,0.4,3.5,0.9,4.7,2.5s2,3,2.3,3.8c0.2,0.9,0.2,1.6,0.1,1.6c-0.1,0-1.5-3.5-1.9-3.4C42.618,23.142,42.518,24.042,42.618,24.142z
	 M23.618,19.542c-0.3-0.2-3.2-0.1-3.4-0.1c-0.2,0-0.3,0.4-0.3,0.5c0,0-0.1,0.4,0.1,0.6c0.1,0.2,2.5,0.1,2.7,0.1
	c0.3,0,0.3,1.2,0.3,1.5s0.9,0.1,1,0.1s0.1-0.4,0.1-1C24.218,20.642,23.918,19.742,23.618,19.542z M33.318,21.042
	c-0.3,0.2-0.3,0.7,0.1,0.9c0.4,0.2,2.4,0.6,3.4,1.4s1,3.1,1.1,3.4c0,0.2,0.7,0.4,1,0.1s0.2-2-0.9-3.9
	C36.818,21.042,33.518,20.942,33.318,21.042z"/>
  </symbol>
  <symbol id="github" viewBox="0 0 105.751 105.751">
    <path style="fill-rule:evenodd;clip-rule:evenodd;" d="M64.269,61.825c3.233-0.092,5.096-1.549,7.693-2.279
			c2.114-1.301,5.561-1.273,7.689-2.562c2.801-0.621,4.5-2.338,6.552-3.701c1.923-1.496,3.74-3.096,5.698-4.558
			c1.383-2.418,3.18-4.414,3.702-7.695v-7.402c-0.485-3.312-1.453-6.144-2.278-9.117c-0.574-0.373-0.963-0.935-1.14-1.707
			c-0.972-0.734-1.828-1.59-2.562-2.561c-1.299-0.51-2.457-1.16-3.137-2.281c0.644-0.209,0.113-1.6,0.286-2.277
			c0.644-0.213,0.112-1.601,0.284-2.279c0.817-0.041-0.248-1.955,0.568-1.996c-0.221-1.176,0.439-1.463,0.289-2.564
			c0.516-2.568,2.285-6.289,0.568-8.543c-0.367-0.396-1.239-0.283-1.996-0.287c-0.336,0.137-0.645,0.305-0.854,0.57
			c-1.163,0.451-1.744,1.483-2.848,1.996c-0.751,0.859-2.013,1.213-2.564,2.279c-1.953,1.365-3.371,3.271-5.413,4.555
			c-1.308-0.072-1.769,0.697-2.847,0.853c-1.217,0.016-2.088,0.383-3.135,0.574c-2.16,0.303-4.308,0.627-6.553,0.852
			c-0.979,0.125-1.594-0.113-2.279-0.285c-0.896-0.139-0.645,0.873-1.707,0.572c-2.825-0.371-6.92,0.234-10.54,0
			c-1.135-0.293-2.433-0.418-3.704-0.572c-1.461-0.91-2.766-1.98-3.705-3.422c-2.373-0.754-4.037-2.221-6.549-2.846
			c-1.457-0.44-1.551-2.248-3.703-1.994c-2.42,0.143-2.675,2.451-3.416,4.273c0.069,4.389-0.49,7.834,0,11.965
			c-0.103,0.943-0.854,1.232-1.425,1.711c-0.51,0.535-0.773,1.315-1.425,1.707c-0.854,1.236-1.44,2.74-2.281,3.986
			c-0.144,1.756-0.697,3.102-0.854,4.84v7.125c0.57,0.965,0.306,2.109,0.57,3.133c0.03,0.123,0.513,0.695,0.569,0.857
			c0.152,0.422,0.188,0.854,0.287,1.137c0.279,0.836,0.537,1.375,0.566,1.996c0.016,0.283,0.254,0.182,0.287,0.285
			c0.539,1.58,0.783,3.195,1.426,4.557c0.254,0.543,0.772,1.119,1.139,1.711c0.479,0.77,0.612,0.992,1.141,1.42
			c0.094,0.078-0.082,0.473,0,0.574c0.989,1.207,2.429,1.838,3.133,3.131c2.388,1.123,4.455,2.568,7.975,2.564
			c0.212,0.641,1.596,0.109,2.281,0.283c0.412,0.441,1.455,0.254,2.275,0.287c1.398,0.408,2.989,0.621,4.846,0.568
			c-0.651,0.775-1.262,1.586-1.995,2.279c-0.538,0.98-1.78,1.258-1.997,2.564c-0.9,0.809-0.505,2.91-1.424,3.703
			c-3.181,0.139-5.987-0.09-7.975-1.141c-2.75-3.037-3.968-7.613-7.69-9.686c-2.846-0.516-5.751,0.219-8.831,0.285
			c-1.202,0.979-2.783,1.588-3.987,2.562c-1.45,0.736-3.122,1.252-3.136,3.42c2.914,2.176,5.346-1.805,8.55-1.994
			c1.871-0.068,3.104,0.502,5.126,0.285c1.205,1.547,2.091,3.414,2.85,5.41c0.989,1.195,2.035,2.334,2.85,3.705
			c0.709-0.051,0.887,0.439,1.138,0.855c2.018,1.018,4.276,1.797,7.12,1.994h4.274c1.476,1.629,1.757,4.047,1.422,6.549
			c-0.058,0.439-0.413,0.936-0.567,1.428c-0.287,0.877-0.408,1.623-0.572,2.275c-0.253,1.012-1.193,1.883-1.14,2.85
			c-1.831,1.395-3.321,3.131-6.553,3.135c-1.957-0.037-1.927-2.059-4.27-1.713c-0.254-1.072-0.396-2.258-1.993-1.992
			c-1.222,0.5-1.366,2.914-0.857,4.277c0.468,1.43,1.165,2.631,1.71,3.982c2.192,1.795,6.56,1.42,10.54,1.426
			c0.598-0.543,1.356-0.918,2.28-1.141c2.017-2.445,3.775-5.146,5.695-7.691c0.202-1.316,0.94-2.1,1.138-3.416
			c0.332-0.926,1.471-2.162,2.279-1.707c0.557,4.191,0.174,9.316,0.285,13.955c-0.629,0.984-0.88,2.352-1.424,3.418
			c-1.592-0.076-2.637,0.404-3.419,1.143c0.28,1.619,1.216,2.582,2.278,3.414c2.973,0.316,4.619-0.699,6.268-1.707
			c0.789-1.777,1.533-3.596,1.994-5.695c0.108-3.609-0.061-7.912,0-12.248c0.381-1.619,0.854-3.139,0.855-5.131
			c0.604-1.391,0.038-3.947,0.855-5.125c0.063,1.832,0.455,3.34,0.287,5.41c0.99,6.51,4.521,10.482,6.547,15.953
			c2.011,1.885,3.97,3.818,7.691,3.986c0.244-0.424,0.92-0.414,1.425-0.568c0.669-0.945,1.378-1.852,1.141-3.701
			c-0.224-0.064-0.332-0.24-0.284-0.574c-0.784-1.682-3.238-1.697-4.56-2.846c-0.786-2.535-2.345-4.301-3.417-6.555
			c-0.694-2.152-1.249-4.445-2.283-6.264c0.084-1.506-0.734-2.113-0.566-3.701c-0.59-0.074-0.076-1.252-0.57-1.426
			c-0.213-0.975,1.158-0.363,0.857-1.424c1.192,1.176,1.647,3.096,2.278,4.838c1.854,2.803,3.562,5.744,6.264,7.693
			c2.239,2.514,5.177,4.322,9.118,5.129h3.701c0.046-0.525,0.967-0.176,1.139-0.57c0.191-0.383,0.613-0.531,1.141-0.57
			c1.033-1.053,1.723-2.453,2.562-3.705c0.578-1.322,1.092-4.285-0.283-5.125c-3.572-0.061-3.897,3.131-6.838,3.703
			c-5.34-1.229-8.855-5.508-11.105-9.4c-0.169-0.283-0.111-0.531-0.288-0.854c-1.569-2.883-3.458-5.752-4.56-8.832
			c-0.841-0.678-1.352-1.684-1.991-2.56c-0.501-0.258-0.885-0.641-1.138-1.139C64.57,62.815,63.669,61.915,64.269,61.825z
			 M81.079,18.815c0.012,0.017,0.259-0.537,0.284-0.572c0.016-0.019-0.023-0.283,0-0.283C82.377,17.782,81.39,19.225,81.079,18.815z
			 M79.367,25.936c-0.582-0.086-0.559-0.773-1.14-0.855c0.401-1.5,1.284-2.516,1.71-3.986c0.512-0.039,0.601,0.344,1.142,0.285
			C81.547,23.936,79.775,24.25,79.367,25.936z M81.363,28.784c-0.015-1.246,0.709-1.758,1.139-2.565
			c0.502,0.26,0.521,0.996,0.854,1.424c0.072,1.021-0.855,1.045-0.854,1.998C81.921,29.557,81.943,28.866,81.363,28.784z
			 M89.906,39.893c0.606,0.09-0.041,1.242-0.281,1.424c0.135,0.898-0.41,1.113-0.571,1.709c-0.846,0.674-0.8,2.24-2.279,2.279
			c-1.329-0.021,0.335-0.652,0.284-1.141c0.26-0.504,0.689-0.832,0.857-1.422C88.803,42.014,89.307,40.909,89.906,39.893z
			 M87.627,37.327c-0.012-0.867,0.605-1.106,0.857-1.705C89.865,35.985,88.278,38.133,87.627,37.327z M87.916,25.936
			c0.716,1.037,2.074,3.336,0.852,4.555c-1.139-0.287-1.141-1.707-1.993-2.277C86.907,27.206,87.494,26.655,87.916,25.936z
			 M87.058,39.323c-0.995,0.996-1.84,2.145-2.562,3.42c-0.92-0.756,0.241-1.83,0.57-2.279c0.58-0.557,0.933-1.346,1.422-1.996
			C86.838,38.592,87.076,38.834,87.058,39.323z M86.204,23.94c-0.005,0.568-0.776,0.363-0.569,1.141
			c-1.079-0.154-1.256-1.213-1.426-2.279C85.377,22.68,85.7,23.401,86.204,23.94z M85.066,30.78
			c0.947,0.695,1.962,2.256,0.855,3.416c-0.901-0.242-0.812-1.471-1.713-1.711C84.481,31.905,84.793,31.354,85.066,30.78z
			 M83.355,37.327c-1.045-0.584-0.016-1.484-0.287-2.844c0.633,0.223,0.715,0.992,1.141,1.422
			C84.348,36.799,83.445,36.655,83.355,37.327z M83.926,6.28c0.824,0.936-0.551,2.098-0.284,3.42
			c-1.217,0.076-1.24-1.041-1.995-1.428C82.284,7.487,83.435,7.215,83.926,6.28z M79.652,9.413h0.855
			c0.014,1.945,2.867,2.043,1.994,3.99c-1.472-0.525-2.123-1.867-3.135-2.85C79.248,9.956,79.562,9.799,79.652,9.413z M77.943,13.12
			c0.461-0.084,0.491,0.266,0.855,0.283c0.093,1.326,1.616,1.229,1.709,2.561c-0.385,0.281-0.57,0.762-0.855,1.141
			c-1.444-0.168-1.449-1.773-2.564-2.277C77.201,14.086,77.939,13.965,77.943,13.12z M77.943,28.213
			c-0.986,0.199-1.021-0.998-0.568-1.426C77.951,26.995,78.535,27.647,77.943,28.213z M75.383,12.545
			c0.148-0.439,0.293-0.018,0.283,0.285C75.156,12.913,75.081,12.561,75.383,12.545z M75.666,17.387
			c0.461-0.078,0.488,0.271,0.854,0.285c0.005,1.23,1.42,1.049,1.424,2.281c-0.891,1.197-1.438,2.74-2.277,3.986
			c-1.278-0.145-1.961-0.887-2.851-1.422C73.822,20.862,74.658,19.043,75.666,17.387z M74.24,27.073h-3.704
			c0.008-0.852,0.743-0.971,0.857-1.711c0.729,0.035,0.998,0.527,1.423,0.857C73.543,26.254,74.279,26.274,74.24,27.073z
			 M71.963,14.827c-0.08-0.463,0.269-0.49,0.283-0.858c1.105-0.246,1.015,0.697,1.711,0.858c-0.414,1.199-1.48,1.748-1.711,3.133
			c-1.096,0.518-0.854,2.373-2.278,2.564c-1.119-0.84-0.127-2.201,0.568-2.851C70.853,16.565,71.326,15.614,71.963,14.827z
			 M69.683,14.254c-0.811,1.186-1.58,2.408-2.278,3.705C65.215,17.059,66.633,13.315,69.683,14.254z M67.689,22.518
			c0.564,0,0.363,0.773,1.139,0.566c-0.105,1.695-1.209,2.4-0.851,4.559c-0.254-0.221-0.645-0.307-1.143-0.283
			c0.609-1.066-0.032-1.619-0.569-2.279C66.56,24.047,67.21,23.364,67.689,22.518z M65.693,20.524
			c-0.313,1.486-1.463,2.137-1.71,3.701c-0.577-0.271-1.127-0.582-1.708-0.856c0.523-1.471,1.608-2.381,1.994-3.986
			C65.105,19.401,65.326,20.032,65.693,20.524z M64.557,14.541c0.146,0.145-0.207,0.361-0.287,0.285
			C64.123,14.676,64.478,14.463,64.557,14.541z M59.714,19.098c0.61-0.527,0.753-1.529,1.423-1.994
			c-0.082-0.461,0.27-0.488,0.289-0.857c0.58,0.086,0.555,0.773,1.135,0.857c-0.192,1.039-1.078,1.391-1.424,2.279
			c-0.638,0.596-0.694,1.773-1.709,1.996C58.486,20.68,59.363,19.993,59.714,19.098z M61.991,26.788
			c-0.124,0.641-1.403,0.115-1.995,0.285c0.104-0.373,0.503-0.447,0.57-0.854C61.445,26.004,61.113,27.002,61.991,26.788z
			 M51.737,14.541h7.69c-0.359,1.916-1.985,2.572-2.562,4.274c-0.851-0.004-0.967-0.742-1.711-0.856
			c0.216-1.213,1.332-1.518,1.141-3.133c-1.443-0.117-1.668,0.994-2.564,1.42c-0.713,0.053-0.89-0.436-1.137-0.854
			C52.326,15.09,51.543,15.305,51.737,14.541z M58.004,27.073c-0.489,0.654-2.174,0.103-3.137,0.287
			c0.69-1.217,1.539-2.262,1.998-3.703c0.422,0.145,0.719,0.422,1.139,0.568C57.381,24.907,57.221,26.42,58.004,27.073z
			 M53.445,24.225c-0.834-0.021-1.055-0.652-1.424-1.141c0.214-1.117,1.113-1.545,1.424-2.561c0.662,0.19,0.762,0.943,1.422,1.137
			C54.424,22.545,54.024,23.475,53.445,24.225z M52.021,27.36c-0.772,0.174-2.26-0.359-2.561,0.283
			c-0.852-0.592,0.713-1.158,0.566-1.994C50.744,26.166,51.978,26.165,52.021,27.36z M49.461,17.104
			c0.911,0.225,1.241,1.031,1.99,1.424c-0.236,1.279-1.469,1.566-1.709,2.852c-0.934-0.113-1.254-0.836-1.993-1.139
			C47.894,18.768,49.244,18.504,49.461,17.104z M42.621,14.541v0.285c2.342-0.68,3.188,1.133,5.415,0.281
			c0.049,1-0.964,0.941-1.144,1.713c-0.749,0.197-0.602,1.293-1.422,1.422c-1.371-0.432-2.178-1.428-3.135-2.279
			c-0.064-0.537,0.324-0.625,0.285-1.137c-0.686-0.117-0.619,0.519-1.425,0.281C40.904,14.151,42.083,14.666,42.621,14.541z
			 M47.466,23.657c-0.401,1.873-2.176,2.383-2.279,4.557c-0.827-0.219-1.64-0.451-1.997-1.141c0.439-1.744,1.738-2.631,2.281-4.271
			C46.574,22.647,46.644,23.528,47.466,23.657z M40.628,18.528c0.149,0.149-0.208,0.367-0.288,0.287
			C40.197,18.666,40.548,18.45,40.628,18.528z M41.196,19.098c0.624,0.611,1.585,0.885,1.993,1.709
			c-0.788,1.775-2.201,2.924-2.85,4.842c-1.163-0.445-2.141-1.086-3.133-1.709C37.899,21.688,40.339,21.182,41.196,19.098z
			 M38.348,30.78c-0.951,0.186-1.393,0.885-2.274,1.139c-1.122-0.213-1.55-1.111-2.567-1.428c0.363-1.631,1.43-2.557,1.996-3.986
			c1.66,0.045,2.117,1.299,3.416,1.709C38.613,28.952,38.226,29.612,38.348,30.78z M32.082,26.788
			c-0.527,0.5-0.861,2.129-1.709,1.426c0.469-1.717,1.482-2.883,2.279-4.273c0.377,0.101,0.449,0.502,0.854,0.568
			C33.31,25.549,32.428,25.899,32.082,26.788z M34.362,21.661c0.147,0.148-0.206,0.361-0.286,0.285
			C33.928,21.801,34.285,21.582,34.362,21.661z M40.06,13.403c-0.769,0.838-1.58-0.691-2.281-0.857
			C38.453,11.799,39.262,13.327,40.06,13.403z M37.779,15.963c-0.843,1.725-2.403,2.727-3.136,4.561
			c-0.579-0.086-0.556-0.773-1.138-0.857c0.623-2.033,1.84-3.478,2.85-5.125C37.105,14.737,36.957,15.836,37.779,15.963z
			 M31.511,13.12V8.842c1.351,0.74,2.956,1.223,4.274,1.998c-0.584,0.266-0.791,0.916-1.142,1.422
			c0.156,1.006-1.009,0.701-0.853,1.707c-0.926,0.781-1.48,1.941-1.992,3.135C31.139,16.336,31.697,14.356,31.511,13.12z
			 M30.659,19.666c0.149-0.439,0.296-0.019,0.284,0.287C30.433,20.032,30.36,19.684,30.659,19.666z M30.088,21.661
			c1.312,0.514-0.67,1.246-0.566,2.279c-0.831,0.406-0.648,1.826-1.713,1.996C28.005,23.946,29.309,23.065,30.088,21.661z
			 M26.672,36.473c0.723-2.024,1.503-4,2.275-5.983h0.857c-0.547,1.666-1.682,3.846-0.857,5.983
			c-0.707,0.721-1.473,1.375-1.707,2.566C26.508,38.723,26.678,37.508,26.672,36.473z M32.935,34.196
			c-0.787,0.068-0.648,1.059-1.137,1.426c-0.117,0.686,0.517,0.617,0.283,1.422c-2.443,2.654-3.17,9.92-1.139,13.674
			c0.344-0.029,0.175,0.414,0,0c-1.695-1.438-2.409-3.855-3.135-6.268c0.422-2.713,1.751-4.518,2.279-7.123
			c0.66-0.191,0.764-0.943,1.423-1.141c-0.2-1.055,0.487-1.221,0.288-2.277c0.332-0.172,0.414-2.006,1.137-0.855
			C34.19,33.014,33.015,33.862,32.935,34.196z M47.466,55.846c-2.874-0.359-5.729-0.73-8.548-1.141
			c-1.062-0.932-2.092-1.896-2.845-3.137c-0.444-0.602-0.821-1.268-1.143-1.988c-0.503-0.451-0.375-1.529-0.854-1.998
			c-0.024-2.777,0.257-5.248,0.567-7.689c0.413-1.676,1.786-2.393,2.563-3.707c1.209-0.881,2.054-2.125,3.421-2.844
			c0.651-0.207,1.455-0.256,1.993-0.572c0.51-0.346,1.659-0.049,1.994-0.566c6.941,0.385,11.861-1.242,18.799-0.855
			c1.465,0.228,1.871-0.604,3.135-0.568h6.267c0.458,0.076,0.494-0.273,0.854-0.289c0.87-0.207,0.842,0.492,1.714,0.289
			c0.72,0.033,1.104,0.41,1.137,1.139c0.375,0.289,1.047,0.277,1.424,0.566c0.852,2.57,1.904,4.936,2.564,7.695v4.555
			c-0.902,3.084-2.186,5.791-3.7,8.262c-1.013,0.795-2.643,0.965-3.704,1.709c-0.636,0.225-1.111,0.6-1.997,0.568
			c-0.101,0.756-1.45,0.26-1.708,0.855C61.727,56.776,55.092,55.934,47.466,55.846z M70.824,47.014
			c2.287,0.195,2.596-1.582,3.416-2.85c-0.043-3.562,0.578-7.795-2.848-7.979h-0.568c-1.201,1.174-2.537,2.223-3.135,3.994
			c-0.043,1.56-0.029,3.068,0.287,4.269C69.048,45.182,69.051,46.983,70.824,47.014z M41.765,47.866
			c1.245,0.82,2.856,0.992,4.277,0.287c2.066-2.088,1.109-7.662-0.289-9.686C40.988,37.04,39.965,44.383,41.765,47.866z
			 M58.004,48.153c0.048-0.33,0.449-0.307,0.855-0.287c0.572-0.67,0.752-1.908,0.287-2.844c-1.072-1.024-3.078-0.453-3.139,1.139
			C56.177,47.325,56.842,47.983,58.004,48.153z M59.146,51.288c-0.941,0.01-1.422,0.479-2.566,0.281
			c-1.864-0.127-1.971-2.016-3.986-1.988c-0.16,0.406-0.445,0.693-0.857,0.85c0.449,2.971,3.085,3.75,6.267,3.992
			c0.666-0.092,1.067-0.451,1.992-0.289c1.387-0.92,4.637-2.285,2.85-4.553C60.869,49.401,60.416,50.752,59.146,51.288z"/>
  </symbol>
</svg>